<svg version="1.1" id="Layer_1" xmlns="http://www.w3.org/2000/svg" xmlns:xlink="http://www.w3.org/1999/xlink" x="0px" y="0px"
	 width="100%" viewBox="0 0 225 225" enable-background="new 0 0 225 225" xml:space="preserve">
<path fill="#010101" opacity="1.000000" stroke="none" 
	d="
M129.000000,226.000000 
	C86.000000,226.000000 43.500004,226.000000 1.000006,226.000000 
	C1.000004,151.000000 1.000004,76.000015 1.000002,1.000016 
	C75.999992,1.000010 150.999985,1.000010 225.999969,1.000005 
	C225.999985,75.999985 225.999985,150.999969 226.000000,225.999969 
	C193.833328,226.000000 161.666672,226.000000 129.000000,226.000000 
M202.862732,120.249428 
	C202.611710,113.940239 202.806885,107.576096 202.037659,101.330727 
	C196.825500,59.012753 159.632263,25.244286 117.215508,24.089540 
	C59.053028,22.506134 15.569997,73.159760 25.931679,130.426575 
	C36.977459,191.474228 107.942169,222.698868 160.621918,189.507370 
	C185.718063,173.695251 199.470367,150.580658 202.862732,120.249428 
z"/>
<path fill="#EEEEEE" opacity="1.000000" stroke="none" 
	d="
M202.836670,120.717194 
	C199.470367,150.580658 185.718063,173.695251 160.621918,189.507370 
	C107.942169,222.698868 36.977459,191.474228 25.931679,130.426575 
	C15.569997,73.159760 59.053028,22.506134 117.215508,24.089540 
	C159.632263,25.244286 196.825500,59.012753 202.037659,101.330727 
	C202.806885,107.576096 202.611710,113.940239 202.836670,120.717194 
M109.744843,28.027575 
	C104.971199,28.684338 100.142487,29.072830 95.432487,30.039623 
	C51.436935,39.070312 21.309662,83.766129 29.182854,127.564034 
	C37.821922,175.622452 82.061562,204.034576 125.434242,198.262604 
	C173.054413,191.925369 207.687347,144.048019 197.485565,97.017960 
	C188.348053,54.894241 154.236938,27.777912 109.744843,28.027575 
z"/>
<path fill="#020202" opacity="1.000000" stroke="none" 
	d="
M110.213356,28.020878 
	C154.236938,27.777912 188.348053,54.894241 197.485565,97.017960 
	C207.687347,144.048019 173.054413,191.925369 125.434242,198.262604 
	C82.061562,204.034576 37.821922,175.622452 29.182854,127.564034 
	C21.309662,83.766129 51.436935,39.070312 95.432487,30.039623 
	C100.142487,29.072830 104.971199,28.684338 110.213356,28.020878 
M91.918411,143.527161 
	C93.730827,144.179779 95.543251,144.832413 97.984329,145.711395 
	C95.488930,138.457474 92.433998,132.447449 91.578827,126.139214 
	C90.949272,121.495293 90.430641,117.582970 86.312485,114.818848 
	C99.577339,107.836655 98.437576,89.094307 86.345901,84.381187 
	C79.116631,81.563347 70.546196,82.186310 62.429253,81.245323 
	C62.429253,86.358635 62.429253,90.075523 62.429253,93.661812 
	C67.084808,93.990356 71.383430,94.255333 75.674858,94.607872 
	C79.589149,94.929420 80.987755,97.485672 81.238335,101.041756 
	C81.621857,106.484612 79.021553,109.435974 73.010452,110.024185 
	C69.440567,110.373520 65.843521,110.445229 62.429310,110.632408 
	C62.429310,114.749321 62.429310,118.313324 62.429310,121.961044 
	C63.938423,121.961044 65.095039,121.988724 66.250000,121.956665 
	C75.483833,121.700386 78.779320,123.166115 79.443817,131.663361 
	C79.724007,135.246262 80.811440,138.844406 82.078308,142.231247 
	C82.550438,143.493423 84.488403,144.743347 85.923607,144.975693 
	C87.782791,145.276672 89.807602,144.554565 91.918411,143.527161 
M158.902481,84.072083 
	C153.884705,89.407112 148.850143,94.726494 143.854370,100.082054 
	C139.753006,104.478806 139.404099,117.491615 143.329956,122.138916 
	C149.234467,129.128448 155.187744,136.078156 161.228409,142.949738 
	C162.113968,143.957108 163.567673,145.005753 164.806259,145.066864 
	C169.715118,145.309006 174.642960,145.166382 180.471954,145.166382 
	C170.114655,133.302490 160.355057,122.123222 150.147476,110.430817 
	C159.644958,100.900719 168.859772,91.654282 178.355621,82.125824 
	C175.140671,82.125824 172.033691,81.947281 168.956802,82.175163 
	C165.768280,82.411316 162.608917,83.041382 158.902481,84.072083 
M138.880020,139.388504 
	C138.880020,120.350861 138.880020,101.313210 138.880020,82.440201 
	C133.597031,82.440201 129.018448,82.440201 124.404846,82.440201 
	C124.404846,103.466042 124.404846,124.169891 124.404846,144.946960 
	C129.270416,144.946960 133.857697,144.946960 138.879745,144.946960 
	C138.879745,143.269867 138.879745,141.816177 138.880020,139.388504 
M45.655666,127.499092 
	C45.655666,133.260590 45.655666,139.022079 45.655666,144.720398 
	C50.809414,144.720398 55.339573,144.720398 59.626122,144.720398 
	C59.626122,123.626625 59.626122,102.918228 59.626122,82.339935 
	C54.837055,82.339935 50.413845,82.339935 45.655651,82.339935 
	C45.655651,97.250221 45.655651,111.874863 45.655666,127.499092 
z"/>
<path fill="#F6F6F6" opacity="1.000000" stroke="none" 
	d="
M91.839760,143.900040 
	C89.807602,144.554565 87.782791,145.276672 85.923607,144.975693 
	C84.488403,144.743347 82.550438,143.493423 82.078308,142.231247 
	C80.811440,138.844406 79.724007,135.246262 79.443817,131.663361 
	C78.779320,123.166115 75.483833,121.700386 66.250000,121.956665 
	C65.095039,121.988724 63.938423,121.961044 62.429310,121.961044 
	C62.429310,118.313324 62.429310,114.749321 62.429310,110.632408 
	C65.843521,110.445229 69.440567,110.373520 73.010452,110.024185 
	C79.021553,109.435974 81.621857,106.484612 81.238335,101.041756 
	C80.987755,97.485672 79.589149,94.929420 75.674858,94.607872 
	C71.383430,94.255333 67.084808,93.990356 62.429253,93.661812 
	C62.429253,90.075523 62.429253,86.358635 62.429253,81.245323 
	C70.546196,82.186310 79.116631,81.563347 86.345901,84.381187 
	C98.437576,89.094307 99.577339,107.836655 86.312485,114.818848 
	C90.430641,117.582970 90.949272,121.495293 91.578827,126.139214 
	C92.433998,132.447449 95.488930,138.457474 97.984329,145.711395 
	C95.543251,144.832413 93.730827,144.179779 91.839760,143.900040 
z"/>
<path fill="#FAFAFA" opacity="1.000000" stroke="none" 
	d="
M159.169647,83.785622 
	C162.608917,83.041382 165.768280,82.411316 168.956802,82.175163 
	C172.033691,81.947281 175.140671,82.125824 178.355621,82.125824 
	C168.859772,91.654282 159.644958,100.900719 150.147476,110.430817 
	C160.355057,122.123222 170.114655,133.302490 180.471954,145.166382 
	C174.642960,145.166382 169.715118,145.309006 164.806259,145.066864 
	C163.567673,145.005753 162.113968,143.957108 161.228409,142.949738 
	C155.187744,136.078156 149.234467,129.128448 143.329956,122.138916 
	C139.404099,117.491615 139.753006,104.478806 143.854370,100.082054 
	C148.850143,94.726494 153.884705,89.407112 159.169647,83.785622 
z"/>
<path fill="#F8F8F8" opacity="1.000000" stroke="none" 
	d="
M138.879883,139.875488 
	C138.879745,141.816177 138.879745,143.269867 138.879745,144.946960 
	C133.857697,144.946960 129.270416,144.946960 124.404846,144.946960 
	C124.404846,124.169891 124.404846,103.466042 124.404846,82.440201 
	C129.018448,82.440201 133.597031,82.440201 138.880020,82.440201 
	C138.880020,101.313210 138.880020,120.350861 138.879883,139.875488 
z"/>
<path fill="#FDFDFD" opacity="1.000000" stroke="none" 
	d="
M45.655659,126.999298 
	C45.655651,111.874863 45.655651,97.250221 45.655651,82.339935 
	C50.413845,82.339935 54.837055,82.339935 59.626122,82.339935 
	C59.626122,102.918228 59.626122,123.626625 59.626122,144.720398 
	C55.339573,144.720398 50.809414,144.720398 45.655666,144.720398 
	C45.655666,139.022079 45.655666,133.260590 45.655659,126.999298 
z"/>
</svg>